<svg width="18" height="16" viewBox="0 0 18 16" fill="none" xmlns="http://www.w3.org/2000/svg">
<path d="M17.4306 6.0972C17.3941 5.98994 17.2973 5.91172 17.1806 5.89542L11.5836 5.11646L9.08061 0.259572C9.02863 0.158238 8.92096 0.0942383 8.80339 0.0942383C8.68582 0.0942383 8.57784 0.158238 8.52617 0.259572L6.02284 5.11676L0.425852 5.89572C0.309209 5.91202 0.212678 5.98994 0.175859 6.0975C0.13966 6.20446 0.169671 6.32239 0.254137 6.40091L4.30445 10.1816L3.34811 15.5203C3.3283 15.6314 3.37595 15.7437 3.47094 15.8101C3.56654 15.8771 3.69308 15.8856 3.79673 15.8326L8.80339 13.3123L13.8094 15.8326C13.8546 15.8554 13.9044 15.8667 13.9536 15.8667C14.0177 15.8667 14.0814 15.8477 14.1355 15.8101C14.2308 15.7437 14.2785 15.6314 14.2584 15.5203L13.3023 10.1819L17.3526 6.40091C17.4368 6.32179 17.4671 6.20416 17.4306 6.0972Z" fill="#EF9546"/>
</svg>
